<?xml version="1.0" encoding="UTF-8"?>
<svg width="20px" height="20px" viewBox="0 0 20 20" version="1.1" xmlns="http://www.w3.org/2000/svg" xmlns:xlink="http://www.w3.org/1999/xlink">
    <!-- Generator: Sketch 52.2 (67145) - http://www.bohemiancoding.com/sketch -->
    <title>zhihu</title>
    <desc>Created with Sketch.</desc>
    <g id="Symbols" stroke="none" stroke-width="1" fill="none" fill-rule="evenodd">
        <g id="footer" transform="translate(-1058.000000, -30.000000)" fill-rule="nonzero">
            <g id="zhihu">
                <g transform="translate(1058.000000, 30.000000)">
                    <rect id="Rectangle-path" fill="#000000" opacity="0" x="0" y="0" width="20" height="20"></rect>
                    <path d="M10.444733,10.631892 C10.444733,10.631892 10.444733,9.41506818 9.85190909,9.35263068 C9.25908523,9.29019318 7.41824432,9.35263068 7.41824432,9.35263068 L7.41824432,5.60852841 L10.163892,5.60852841 C10.163892,5.60852841 10.1326989,4.36047727 9.60226136,4.36047727 L5.14052841,4.36047727 L5.88933523,2.36363636 C5.88933523,2.36363636 4.76609091,2.42607386 4.36049432,3.14365341 C3.95489773,3.86123295 2.67565341,7.44940341 2.67565341,7.44940341 C2.67565341,7.44940341 3.11247727,7.63661364 3.83007386,7.10621023 C4.54770455,6.57582386 4.79728409,5.63973864 4.79728409,5.63973864 L6.10772159,5.57730114 L6.13891477,9.38382386 C6.13891477,9.38382386 3.86128409,9.35263068 3.39326705,9.38382386 C2.92525,9.41501705 2.67563636,10.6630852 2.67563636,10.6630852 L6.13896591,10.6630852 C6.13896591,10.6630852 5.82691477,12.784733 4.95333523,14.313608 C4.04847727,15.8424489 2.36363636,17.0592557 2.36363636,17.0592557 C2.36363636,17.0592557 3.58046023,17.5584659 4.76614205,16.8720455 C5.95177273,16.1544148 6.82542045,13.0655227 6.82542045,13.0655227 L9.60232955,16.5288523 C9.60232955,16.5288523 9.85192614,14.8752216 9.57113636,14.4072045 C9.25908523,13.9391875 7.63664773,12.0671534 7.63664773,12.0671534 L6.91901705,12.6911364 L7.41822727,10.631858 L10.4446818,10.631858 L10.444733,10.631892 Z M11.1623636,4.26691477 L11.1311705,15.5304318 L12.2544148,15.5304318 L12.6600114,16.9344659 L14.6257102,15.5304318 L17.4026193,15.5304318 L17.4026193,4.26691477 L11.1624318,4.26691477 L11.1623636,4.26691477 Z M16.1544659,14.2823807 L14.8440284,14.2823807 L13.1903977,15.561642 L12.8159943,14.2823807 L12.4728011,14.2823807 L12.4728011,5.546125 L16.1544659,5.546125 L16.1544659,14.2823807 Z" id="Shape" fill="#210D25"></path>
                </g>
            </g>
        </g>
    </g>
</svg>